# xmcd
#
# Track frame offsets:
#	150
#	17898
#	38428
#	58878
#	80640
#	99507
#	113617
#	138076
#	162700
#	180450
#	209481
#	227772
#	246968
#	270282
#	319146
#	334123
#	360166
#
# Disc length: 4806 seconds
#
# Revision: 0
# Processed by: cddbd v1.5.2PL0 Copyright (c) Steve Scherf et al.
# Submitted via: dBpowerAMP V4.0
#
DISCID=e712c411
DTITLE=DUKE ROBILARD - Plays The Blues
DYEAR=2001
DGENRE=Blues
TTITLE0=Down By the Delta
TTITLE1=You Got Me
TTITLE2=If This Is Love
TTITLE3=Judgment Day
TTITLE4=The High Cost Of Loving
TTITLE5=She Made My Mind
TTITLE6=You're The One I Adore
TTITLE7=Don't Come Back
TTITLE8=Anything It Takes
TTITLE9=Duke's Mood
TTITLE10=Just A Human
TTITLE11=Let Me Love You
TTITLE12=Just Kiss Me
TTITLE13=I Think You Know
TTITLE14=JIMMIE VAUGHAN-Positively Ment To Be
TTITLE15=CHRIS DUARTE BAND-Watch Out
TTITLE16=Fin
EXTD=
EXTT0=
EXTT1=
EXTT2=
EXTT3=
EXTT4=
EXTT5=
EXTT6=
EXTT7=
EXTT8=
EXTT9=
EXTT10=
EXTT11=
EXTT12=
EXTT13=
EXTT14=
EXTT15=
EXTT16=
PLAYORDER=
